<svg width="458" height="254" viewBox="0 0 458 254" fill="none" xmlns="http://www.w3.org/2000/svg">
<g filter="url(#filter0_d_27_238)">
<rect x="4" y="159" width="450" height="87" rx="2" fill="#C9516D"/>
<rect x="4.5" y="159.5" width="449" height="86" rx="1.5" stroke="#C9516D"/>
</g>
<g filter="url(#filter1_d_27_238)">
<rect x="195" y="159" width="68" height="87" fill="#FFA68D"/>
</g>
<g filter="url(#filter2_d_27_238)">
<path d="M364.724 109C364.724 49.837 292.876 105.068 267.797 106.672C204.032 110.752 371.604 25.7593 398.646 83.6497C402.108 91.0625 404.636 99.3955 405.996 109C404.558 124.81 401.113 135.874 395.549 144.333C359.802 198.684 204.977 93.6733 268.283 108.651C298.873 115.888 364.724 160.702 364.724 109Z" fill="#FFA68D"/>
</g>
<g filter="url(#filter3_d_27_238)">
<path d="M91.8672 115.5C91.8672 174.663 163.715 119.432 188.795 117.828C252.559 113.748 84.9874 198.741 57.9456 140.85C54.4829 133.438 51.9554 125.104 50.5955 115.5C52.0327 99.6901 55.478 88.6262 61.0417 80.167C96.7893 25.8156 251.614 130.827 188.308 115.849C157.718 108.612 91.8672 63.7983 91.8672 115.5Z" fill="#FFA68D"/>
</g>
<g filter="url(#filter4_d_27_238)">
<mask id="path-6-inside-1_27_238" fill="white">
<path d="M195 110C195 93.4315 208.431 80 225 80H233C249.569 80 263 93.4315 263 110V159H195V110Z"/>
</mask>
<path d="M195 110C195 93.4315 208.431 80 225 80H233C249.569 80 263 93.4315 263 110V159H195V110Z" fill="#FFA68D"/>
<path d="M194 110C194 92.8792 207.879 79 225 79H233C250.121 79 264 92.8792 264 110H262C262 93.9837 249.016 81 233 81H225C208.984 81 196 93.9837 196 110H194ZM263 159H195H263ZM194 159V110C194 92.8792 207.879 79 225 79V81C208.984 81 196 93.9837 196 110V159H194ZM233 79C250.121 79 264 92.8792 264 110V159H262V110C262 93.9837 249.016 81 233 81V79Z" fill="white" fill-opacity="0.1" mask="url(#path-6-inside-1_27_238)"/>
</g>
<defs>
<filter id="filter0_d_27_238" x="0" y="159" width="458" height="95" filterUnits="userSpaceOnUse" color-interpolation-filters="sRGB">
<feFlood flood-opacity="0" result="BackgroundImageFix"/>
<feColorMatrix in="SourceAlpha" type="matrix" values="0 0 0 0 0 0 0 0 0 0 0 0 0 0 0 0 0 0 127 0" result="hardAlpha"/>
<feOffset dy="4"/>
<feGaussianBlur stdDeviation="2"/>
<feComposite in2="hardAlpha" operator="out"/>
<feColorMatrix type="matrix" values="0 0 0 0 0 0 0 0 0 0 0 0 0 0 0 0 0 0 0.25 0"/>
<feBlend mode="normal" in2="BackgroundImageFix" result="effect1_dropShadow_27_238"/>
<feBlend mode="normal" in="SourceGraphic" in2="effect1_dropShadow_27_238" result="shape"/>
</filter>
<filter id="filter1_d_27_238" x="191" y="159" width="76" height="95" filterUnits="userSpaceOnUse" color-interpolation-filters="sRGB">
<feFlood flood-opacity="0" result="BackgroundImageFix"/>
<feColorMatrix in="SourceAlpha" type="matrix" values="0 0 0 0 0 0 0 0 0 0 0 0 0 0 0 0 0 0 127 0" result="hardAlpha"/>
<feOffset dy="4"/>
<feGaussianBlur stdDeviation="2"/>
<feComposite in2="hardAlpha" operator="out"/>
<feColorMatrix type="matrix" values="0 0 0 0 0 0 0 0 0 0 0 0 0 0 0 0 0 0 0.25 0"/>
<feBlend mode="normal" in2="BackgroundImageFix" result="effect1_dropShadow_27_238"/>
<feBlend mode="normal" in="SourceGraphic" in2="effect1_dropShadow_27_238" result="shape"/>
</filter>
<filter id="filter2_d_27_238" x="249.246" y="63.3902" width="160.749" height="104.688" filterUnits="userSpaceOnUse" color-interpolation-filters="sRGB">
<feFlood flood-opacity="0" result="BackgroundImageFix"/>
<feColorMatrix in="SourceAlpha" type="matrix" values="0 0 0 0 0 0 0 0 0 0 0 0 0 0 0 0 0 0 127 0" result="hardAlpha"/>
<feOffset dy="4"/>
<feGaussianBlur stdDeviation="2"/>
<feComposite in2="hardAlpha" operator="out"/>
<feColorMatrix type="matrix" values="0 0 0 0 0 0 0 0 0 0 0 0 0 0 0 0 0 0 0.25 0"/>
<feBlend mode="normal" in2="BackgroundImageFix" result="effect1_dropShadow_27_238"/>
<feBlend mode="normal" in="SourceGraphic" in2="effect1_dropShadow_27_238" result="shape"/>
</filter>
<filter id="filter3_d_27_238" x="46.5955" y="64.4217" width="160.749" height="104.688" filterUnits="userSpaceOnUse" color-interpolation-filters="sRGB">
<feFlood flood-opacity="0" result="BackgroundImageFix"/>
<feColorMatrix in="SourceAlpha" type="matrix" values="0 0 0 0 0 0 0 0 0 0 0 0 0 0 0 0 0 0 127 0" result="hardAlpha"/>
<feOffset dy="4"/>
<feGaussianBlur stdDeviation="2"/>
<feComposite in2="hardAlpha" operator="out"/>
<feColorMatrix type="matrix" values="0 0 0 0 0 0 0 0 0 0 0 0 0 0 0 0 0 0 0.25 0"/>
<feBlend mode="normal" in2="BackgroundImageFix" result="effect1_dropShadow_27_238"/>
<feBlend mode="normal" in="SourceGraphic" in2="effect1_dropShadow_27_238" result="shape"/>
</filter>
<filter id="filter4_d_27_238" x="191" y="80" width="76" height="87" filterUnits="userSpaceOnUse" color-interpolation-filters="sRGB">
<feFlood flood-opacity="0" result="BackgroundImageFix"/>
<feColorMatrix in="SourceAlpha" type="matrix" values="0 0 0 0 0 0 0 0 0 0 0 0 0 0 0 0 0 0 127 0" result="hardAlpha"/>
<feOffset dy="4"/>
<feGaussianBlur stdDeviation="2"/>
<feComposite in2="hardAlpha" operator="out"/>
<feColorMatrix type="matrix" values="0 0 0 0 0 0 0 0 0 0 0 0 0 0 0 0 0 0 0.25 0"/>
<feBlend mode="normal" in2="BackgroundImageFix" result="effect1_dropShadow_27_238"/>
<feBlend mode="normal" in="SourceGraphic" in2="effect1_dropShadow_27_238" result="shape"/>
</filter>
</defs>
</svg>
