<svg width="150" height="223" viewBox="0 0 150 223" fill="none" xmlns="http://www.w3.org/2000/svg">
<path d="M132.824 59.0371C132.824 80.0709 115.44 95.8266 98.4778 109.353C85.591 119.63 65.5206 119.669 52.6324 109.393C35.6543 95.8576 18.3206 80.0917 18.3206 59.0371C18.3206 27.4836 42.5572 9.33167 75.5725 26.281C105.725 9.33167 132.824 27.4836 132.824 59.0371Z" fill="url(#paint0_linear_61_244)"/>
<g filter="url(#filter0_f_61_244)">
<path fill-rule="evenodd" clip-rule="evenodd" d="M80.0897 116.824C70.4071 117.953 60.2614 115.485 52.6324 109.402C35.6543 95.8666 18.3206 80.1007 18.3206 59.0461C18.3206 34.0323 33.5519 17.4406 56.3134 20.0816C38.7185 22.2885 27.4809 37.5604 27.4809 59.0461C27.4809 80.1007 44.8146 95.8666 61.7927 109.402C67.0276 113.576 73.4475 116.048 80.0897 116.824ZM79.963 24.0565C88.0446 20.3748 95.8153 19.1973 102.795 20.091C97.0453 20.7901 90.954 22.793 84.7328 26.29C83.1213 25.4628 81.5308 24.7191 79.963 24.0565Z" fill="url(#paint1_linear_61_244)"/>
</g>
<g style="mix-blend-mode:multiply" filter="url(#filter1_f_61_244)">
<path fill-rule="evenodd" clip-rule="evenodd" d="M132.411 64.6269C132.682 62.8083 132.824 60.9488 132.824 59.0462C132.824 27.4926 105.725 9.3407 75.5725 26.2901C42.5572 9.3407 18.3206 27.4926 18.3206 59.0462C18.3206 60.8967 18.4545 62.7063 18.7102 64.4772C21.9452 37.1932 44.9934 22.7797 75.5725 38.4784C103.551 22.751 128.901 37.246 132.411 64.6269Z" fill="url(#paint2_linear_61_244)" fill-opacity="0.25"/>
</g>
<ellipse cx="103.435" cy="46.468" rx="46.5649" ry="46.468" fill="url(#paint3_radial_61_244)" fill-opacity="0.7"/>
<ellipse cx="46.5649" cy="46.468" rx="46.5649" ry="46.468" fill="url(#paint4_radial_61_244)" fill-opacity="0.5"/>
<path d="M76.7887 116.978C76.1388 118.495 74.7011 119.432 74.2079 121.123C73.6073 123.182 74.4902 124.568 75.9082 125.936C77.3134 127.29 78.1074 128.078 78.489 130.156C78.8751 132.258 78.6825 133.831 77.8818 135.788C77.016 137.904 75.7836 137.991 73.8435 138.779C73.189 139.045 72.1549 139.148 71.794 139.842C71.2133 140.958 71.8044 142.586 72.2495 143.607C73.2675 145.942 74.5888 148.456 76.6976 149.983C77.5385 150.592 79.0395 151.173 79.3999 152.123C80.1625 154.134 80.2429 155.931 78.7319 157.756C77.6034 159.118 75.0953 159.555 74.9062 161.399C74.6396 163.999 75.1073 168.858 77.4263 170.447C79.02 171.54 80.8652 172.206 81.6012 174.152C82.3908 176.238 82.4232 178.836 81.7227 180.938C80.3702 184.995 78.0719 188.795 75.9689 192.491C74.1181 195.743 72.2082 198.769 71.9307 202.571C71.8073 204.261 71.6012 206.45 72.8416 207.809C75.5348 210.759 80.7611 210.519 84.3642 211.392C86.0149 211.791 86.8841 212.18 87.1728 213.897C87.5112 215.909 87.4461 217.967 87.4461 219.999" stroke="url(#paint5_linear_61_244)" stroke-width="2" stroke-linecap="round"/>
<defs>
<filter id="filter0_f_61_244" x="3.32056" y="4.806" width="114.475" height="127.283" filterUnits="userSpaceOnUse" color-interpolation-filters="sRGB">
<feFlood flood-opacity="0" result="BackgroundImageFix"/>
<feBlend mode="normal" in="SourceGraphic" in2="BackgroundImageFix" result="shape"/>
<feGaussianBlur stdDeviation="7.5" result="effect1_foregroundBlur_61_244"/>
</filter>
<filter id="filter1_f_61_244" x="3.32056" y="4.80603" width="144.504" height="74.8209" filterUnits="userSpaceOnUse" color-interpolation-filters="sRGB">
<feFlood flood-opacity="0" result="BackgroundImageFix"/>
<feBlend mode="normal" in="SourceGraphic" in2="BackgroundImageFix" result="shape"/>
<feGaussianBlur stdDeviation="7.5" result="effect1_foregroundBlur_61_244"/>
</filter>
<linearGradient id="paint0_linear_61_244" x1="18.3206" y1="64.9409" x2="132.824" y2="63.6022" gradientUnits="userSpaceOnUse">
<stop stop-color="#FD3A8B"/>
<stop offset="1" stop-color="#FFA68D"/>
</linearGradient>
<linearGradient id="paint1_linear_61_244" x1="24.5779" y1="62.0301" x2="102.8" y2="61.3622" gradientUnits="userSpaceOnUse">
<stop stop-color="#FD3A8B"/>
<stop offset="1" stop-color="#FFA68D"/>
</linearGradient>
<linearGradient id="paint2_linear_61_244" x1="18.3206" y1="41.9205" x2="132.735" y2="38.4527" gradientUnits="userSpaceOnUse">
<stop stop-color="#FD3A8B"/>
<stop offset="1" stop-color="#FFA68D"/>
</linearGradient>
<radialGradient id="paint3_radial_61_244" cx="0" cy="0" r="1" gradientUnits="userSpaceOnUse" gradientTransform="translate(103.435 46.468) rotate(90) scale(46.468 46.5649)">
<stop stop-color="white"/>
<stop offset="1" stop-color="#FE7D8A" stop-opacity="0"/>
</radialGradient>
<radialGradient id="paint4_radial_61_244" cx="0" cy="0" r="1" gradientUnits="userSpaceOnUse" gradientTransform="translate(46.5649 46.468) rotate(90) scale(46.468 46.5649)">
<stop stop-color="white"/>
<stop offset="1" stop-color="#FE7D8A" stop-opacity="0"/>
</radialGradient>
<linearGradient id="paint5_linear_61_244" x1="79.5016" y1="116.978" x2="79.5016" y2="219.999" gradientUnits="userSpaceOnUse">
<stop stop-color="#FD3A8B"/>
<stop offset="1" stop-color="#FFA68D"/>
</linearGradient>
</defs>
</svg>
